<svg width="30" height="22" viewBox="0 0 30 22" fill="none" xmlns="http://www.w3.org/2000/svg">
<rect x="1" y="1" width="28" height="20" rx="4" fill="#1F72CD"/>
<path fill-rule="evenodd" clip-rule="evenodd" d="M5.80538 7.8988L3.125 14.0933H6.33379L6.73159 13.1057H7.64086L8.03866 14.0933H11.5706V13.3395L11.8854 14.0933H13.7124L14.0271 13.3236V14.0933H21.3726L22.2658 13.1313L23.1022 14.0933L26.875 14.1013L24.1862 11.0134L26.875 7.8988H23.1607L22.2912 8.84304L21.4812 7.8988H13.4902L12.804 9.49767L12.1017 7.8988H8.89965V8.62697L8.54344 7.8988H5.80538ZM16.7743 8.7782H20.9925L22.2826 10.2336L23.6143 8.7782H24.9045L22.9442 11.0123L24.9045 13.2206H23.5558L22.2657 11.7483L20.9271 13.2206H16.7743V8.7782ZM17.8164 10.5103V9.6989V9.69812H20.4484L21.5969 10.9958L20.3975 12.3006H17.8164V11.4147H20.1176V10.5103H17.8164ZM6.42618 8.7782H7.99029L9.76819 12.9788V8.7782H11.4816L12.8548 11.79L14.1204 8.7782H15.8253V13.2232H14.7879L14.7794 9.74012L13.267 13.2232H12.3391L10.8182 9.74012V13.2232H8.68411L8.27952 12.2267H6.09369L5.68994 13.2223H4.54651L6.42618 8.7782ZM6.46729 11.3054L7.18743 9.53015L7.90674 11.3054H6.46729Z" fill="white"/>
<rect x="0.5" y="0.5" width="29" height="21" rx="4.5" stroke="#002B33" stroke-opacity="0.07"/>
</svg>
