<svg width="30" height="22" viewBox="0 0 30 22" fill="none" xmlns="http://www.w3.org/2000/svg">
<rect x="1" y="1" width="28" height="20" rx="4" fill="white"/>
<path d="M16.5288 17.2499C19.8659 17.2663 22.9119 14.4635 22.9119 11.0541C22.9119 7.3259 19.8659 4.74861 16.5288 4.75H13.6567C10.2798 4.74861 7.5 7.3266 7.5 11.0541C7.5 14.4642 10.2798 17.2663 13.6567 17.2499H16.5288Z" fill="#0079BE"/>
<path d="M13.6705 5.2666C10.5844 5.26765 8.08404 7.82824 8.08301 10.9886C8.08404 14.1487 10.5844 16.7092 13.6705 16.7103C16.7569 16.7092 19.2583 14.1487 19.2586 10.9886C19.2583 7.82824 16.7572 5.26765 13.6705 5.2666ZM10.129 10.9886C10.1283 10.2579 10.345 9.544 10.7506 8.94019C11.1563 8.33638 11.732 7.87076 12.4026 7.60419V14.3727C11.732 14.1063 11.1561 13.6408 10.7505 13.037C10.3448 12.4332 10.1282 11.7193 10.129 10.9886ZM14.938 14.3741V7.60384C15.6091 7.87003 16.1853 8.33562 16.5913 8.93963C16.9972 9.54364 17.2139 10.2579 17.213 10.989C17.2138 11.72 16.997 12.4342 16.5911 13.0382C16.1852 13.6422 15.609 14.1078 14.938 14.3741Z" fill="white"/>
<path d="M16.5288 17.2499C19.8659 17.2663 22.9119 14.4635 22.9119 11.0541C22.9119 7.3259 19.8659 4.74861 16.5288 4.75H13.6567C10.2798 4.74861 7.5 7.3266 7.5 11.0541C7.5 14.4642 10.2798 17.2663 13.6567 17.2499H16.5288Z" fill="#0079BE"/>
<path d="M13.6705 5.2666C10.5844 5.26765 8.08404 7.82824 8.08301 10.9886C8.08404 14.1487 10.5844 16.7092 13.6705 16.7103C16.7569 16.7092 19.2583 14.1487 19.2586 10.9886C19.2583 7.82824 16.7572 5.26765 13.6705 5.2666ZM10.129 10.9886C10.1283 10.2579 10.345 9.544 10.7506 8.94019C11.1563 8.33638 11.732 7.87076 12.4026 7.60419V14.3727C11.732 14.1063 11.1561 13.6408 10.7505 13.037C10.3448 12.4332 10.1282 11.7193 10.129 10.9886ZM14.938 14.3741V7.60384C15.6091 7.87003 16.1853 8.33562 16.5913 8.93963C16.9972 9.54364 17.2139 10.2579 17.213 10.989C17.2138 11.72 16.997 12.4342 16.5911 13.0382C16.1852 13.6422 15.609 14.1078 14.938 14.3741Z" fill="white"/>
<rect x="0.5" y="0.5" width="29" height="21" rx="4.5" stroke="#002B33" stroke-opacity="0.07"/>
</svg>
