<svg width="30" height="22" viewBox="0 0 30 22" fill="none" xmlns="http://www.w3.org/2000/svg">
<rect x="1" y="1" width="28" height="20" rx="4" fill="white"/>
<path d="M13.1665 21L28.9998 16.2083V19.0625C28.9998 20.1326 28.1324 21 27.0623 21H13.1665Z" fill="#FD6020"/>
<path fill-rule="evenodd" clip-rule="evenodd" d="M25.1196 8.59216C25.9907 8.59216 26.4698 8.99512 26.4698 9.75625C26.5133 10.3383 26.1213 10.8308 25.5987 10.9203L26.7747 12.5769H25.86L24.8583 10.9651H24.7712V12.5769H24.0308V8.59216H25.1196ZM24.771 10.4275H24.9888C25.4679 10.4275 25.6856 10.2036 25.6856 9.80067C25.6856 9.44249 25.4679 9.21863 24.9888 9.21863H24.771V10.4275ZM21.4609 12.577H23.5515V11.9054H22.2014V10.8309H23.508V10.1593H22.2014V9.26387H23.5515V8.59229H21.4609V12.577ZM19.2833 11.2785L18.2815 8.59216H17.4976L19.1091 12.6665H19.501L21.1125 8.59216H20.3286L19.2833 11.2785ZM10.4419 10.6076C10.4419 11.7269 11.313 12.6671 12.4018 12.6671C12.7503 12.6671 13.0551 12.5776 13.36 12.4433V11.5478C13.1422 11.8164 12.8374 11.9955 12.4889 11.9955C11.7921 11.9955 11.2259 11.4583 11.2259 10.7419V10.6524C11.1823 9.936 11.7485 9.30918 12.4454 9.26441C12.7938 9.26441 13.1422 9.4435 13.36 9.71213V8.81668C13.0987 8.63759 12.7503 8.59282 12.4454 8.59282C11.313 8.50328 10.4419 9.4435 10.4419 10.6076ZM9.09216 10.1146C8.65662 9.93555 8.52596 9.846 8.52596 9.62214C8.56951 9.35351 8.78728 9.12964 9.04861 9.17442C9.26638 9.17442 9.48415 9.30873 9.65836 9.48782L10.0503 8.95055C9.74547 8.68192 9.35349 8.50283 8.9615 8.50283C8.35175 8.45806 7.8291 8.95055 7.78554 9.57737V9.62214C7.78554 10.1594 8.00331 10.4728 8.70018 10.6967C8.87439 10.7415 9.04861 10.831 9.22282 10.9205C9.35349 11.0101 9.44059 11.1444 9.44059 11.3235C9.44059 11.6369 9.17927 11.9055 8.91795 11.9055H8.87439C8.52596 11.9055 8.22108 11.6817 8.09042 11.3683L7.61133 11.8608C7.87265 12.3533 8.3953 12.6219 8.91795 12.6219C9.61481 12.6667 10.181 12.1294 10.2246 11.413V11.2787C10.181 10.7415 9.96324 10.4728 9.09216 10.1146ZM6.56555 12.5769H7.30597V8.59216H6.56555V12.5769ZM3.125 8.59216H4.21385H4.43162C5.47691 8.63694 6.30444 9.53238 6.26088 10.6069C6.26088 11.189 5.99956 11.7262 5.56402 12.1292C5.17203 12.4426 4.69294 12.6217 4.21385 12.5769H3.125V8.59216ZM4.08313 11.905C4.43156 11.9498 4.82354 11.8155 5.08487 11.5916C5.34619 11.323 5.47685 10.9648 5.47685 10.5619C5.47685 10.2037 5.34619 9.8455 5.08487 9.57687C4.82354 9.35301 4.43156 9.21869 4.08313 9.26346H3.86536V11.905H4.08313Z" fill="black"/>
<path fill-rule="evenodd" clip-rule="evenodd" d="M15.5816 8.5C14.4928 8.5 13.5781 9.39545 13.5781 10.5595C13.5781 11.6788 14.4492 12.6191 15.5816 12.6638C16.714 12.7086 17.5851 11.7684 17.6286 10.6043C17.5851 9.44022 16.714 8.5 15.5816 8.5V8.5Z" fill="#FD6020"/>
<rect x="0.5" y="0.5" width="29" height="21" rx="4.5" stroke="#002B33" stroke-opacity="0.07"/>
</svg>
