<svg width="30" height="22" viewBox="0 0 30 22" fill="none" xmlns="http://www.w3.org/2000/svg">
<rect x="1" y="1" width="28" height="20" rx="4" fill="white"/>
<path d="M7.52438 7.15323C7.54778 6.20723 8.38988 5.39067 9.32828 5.37685C10.2653 5.37396 11.2025 5.37643 12.1395 5.37559C12.137 8.54072 12.1446 11.7062 12.1357 14.8712C12.0996 15.8057 11.2667 16.6067 10.3385 16.6232C9.39968 16.6266 8.46076 16.6237 7.52191 16.6246V12.6737C8.43384 12.8894 9.39015 12.9812 10.3205 12.8381C10.8766 12.7485 11.485 12.4751 11.6733 11.8973C11.8119 11.4031 11.7339 10.883 11.7545 10.3757V9.19775H10.1444C10.1372 9.97683 10.1593 10.7573 10.1328 11.5354C10.0894 12.0137 9.6164 12.3176 9.16595 12.3014C8.6073 12.3073 7.50028 11.8959 7.50028 11.8959C7.49749 10.4363 7.51648 8.60822 7.52438 7.15337V7.15323Z" fill="url(#paint0_linear_1580_98769)"/>
<path d="M18.7967 11.2278C19.2031 11.2366 19.6118 11.2098 20.0166 11.2417C20.4265 11.3183 20.5253 11.9397 20.1611 12.1433C19.9126 12.2773 19.6174 12.1932 19.3481 12.2168H18.7967V11.2278ZM20.2515 10.1083C20.3418 10.4275 20.0346 10.714 19.7277 10.6701H18.7967C18.8033 10.3691 18.784 10.0424 18.8062 9.75731C19.1791 9.76783 19.5555 9.73586 19.9263 9.77403C20.0856 9.81411 20.2189 9.94527 20.2515 10.1083ZM22.492 5.37551C22.5093 5.98499 22.4945 6.62669 22.4995 7.24854C22.4983 9.77674 22.5019 12.3049 22.4975 14.8332C22.4811 15.7807 21.6426 16.604 20.703 16.623C19.7625 16.6268 18.8218 16.6235 17.8812 16.6246V12.8025C18.9061 12.7972 19.9315 12.8132 20.9559 12.7945C21.4312 12.7646 21.9517 12.4506 21.9739 11.9268C22.0298 11.4008 21.5346 11.037 21.0644 10.9795C20.8837 10.9748 20.889 10.9268 21.0644 10.9058C21.5129 10.8087 21.865 10.344 21.7331 9.87847C21.6206 9.38889 21.0803 9.1994 20.6308 9.20035C19.7144 9.19411 18.7978 9.19947 17.8814 9.19766C17.8873 8.48412 17.869 7.76981 17.8912 7.05679C17.9638 6.12639 18.8235 5.35911 19.7499 5.37575C20.664 5.37561 21.578 5.37561 22.492 5.37558V5.37551Z" fill="url(#paint1_linear_1580_98769)"/>
<path d="M12.7398 9.67267C12.6551 9.69067 12.7228 9.38358 12.7011 9.26709C12.7069 8.53052 12.6891 7.79316 12.711 7.05712C12.7834 6.12278 13.6496 5.35358 14.5797 5.37546H17.319C17.3164 8.54059 17.324 11.7061 17.3151 14.871C17.279 15.8055 16.446 16.6065 15.5178 16.6231C14.5789 16.6266 13.64 16.6236 12.7011 16.6245V12.2957C13.3423 12.8226 14.2138 12.9046 15.0127 12.906C15.615 12.9058 16.2137 12.8128 16.7986 12.6737V11.8807C16.1394 12.2096 15.3646 12.4186 14.634 12.2296C14.1243 12.1026 13.7543 11.6093 13.7626 11.0825C13.7035 10.5348 14.0242 9.95646 14.5617 9.79361C15.2291 9.58438 15.9565 9.74441 16.582 10.0164C16.7161 10.0867 16.8521 10.1739 16.7985 9.94953V9.32618C15.7523 9.0769 14.6388 8.98517 13.5877 9.25636C13.2834 9.34231 12.987 9.47266 12.7398 9.67273V9.67267Z" fill="url(#paint2_linear_1580_98769)"/>
<rect x="0.5" y="0.5" width="29" height="21" rx="4.5" stroke="#002B33" stroke-opacity="0.07"/>
<defs>
<linearGradient id="paint0_linear_1580_98769" x1="7.42366" y1="11.1078" x2="12.0638" y2="11.1078" gradientUnits="userSpaceOnUse">
<stop stop-color="#0F6EB6"/>
<stop offset="1" stop-color="#006DBA"/>
</linearGradient>
<linearGradient id="paint1_linear_1580_98769" x1="17.8497" y1="10.7595" x2="22.4703" y2="10.7595" gradientUnits="userSpaceOnUse">
<stop stop-color="#58B03A"/>
<stop offset="1" stop-color="#55B330"/>
</linearGradient>
<linearGradient id="paint2_linear_1580_98769" x1="12.6943" y1="10.8685" x2="17.3181" y2="10.8685" gradientUnits="userSpaceOnUse">
<stop stop-color="#DE0D3D"/>
<stop offset="1" stop-color="#E30138"/>
</linearGradient>
</defs>
</svg>
