<svg width="30" height="22" viewBox="0 0 30 22" fill="none" xmlns="http://www.w3.org/2000/svg">
<rect x="1" y="1" width="28" height="20" rx="4" fill="white"/>
<path fill-rule="evenodd" clip-rule="evenodd" d="M15.0002 15.5189C13.941 16.4035 12.567 16.9375 11.0656 16.9375C7.71565 16.9375 5 14.2792 5 11C5 7.72081 7.71565 5.0625 11.0656 5.0625C12.567 5.0625 13.941 5.5965 15.0002 6.48106C16.0594 5.5965 17.4334 5.0625 18.9348 5.0625C22.2848 5.0625 25.0004 7.72081 25.0004 11C25.0004 14.2792 22.2848 16.9375 18.9348 16.9375C17.4334 16.9375 16.0594 16.4035 15.0002 15.5189Z" fill="#ED0006"/>
<path fill-rule="evenodd" clip-rule="evenodd" d="M15 15.5189C16.3041 14.4299 17.1309 12.8095 17.1309 11C17.1309 9.19052 16.3041 7.57011 15 6.48106C16.0592 5.5965 17.4332 5.0625 18.9346 5.0625C22.2846 5.0625 25.0002 7.72081 25.0002 11C25.0002 14.2792 22.2846 16.9375 18.9346 16.9375C17.4332 16.9375 16.0592 16.4035 15 15.5189Z" fill="#F9A000"/>
<path fill-rule="evenodd" clip-rule="evenodd" d="M15.0001 15.5188C16.3041 14.4298 17.131 12.8094 17.131 10.9999C17.131 9.19042 16.3041 7.57 15.0001 6.48096C13.696 7.57 12.8691 9.19042 12.8691 10.9999C12.8691 12.8094 13.696 14.4298 15.0001 15.5188Z" fill="#FF5E00"/>
<rect x="0.5" y="0.5" width="29" height="21" rx="4.5" stroke="#002B33" stroke-opacity="0.07"/>
</svg>
