<svg width="30" height="22" viewBox="0 0 30 22" fill="none" xmlns="http://www.w3.org/2000/svg">
<rect x="1" y="1" width="28" height="20" rx="4" fill="white"/>
<path fill-rule="evenodd" clip-rule="evenodd" d="M9.93771 14.1999H8.20683L6.90889 9.15734C6.84728 8.92539 6.71648 8.72033 6.52406 8.62368C6.04388 8.3808 5.51474 8.1875 4.9375 8.09001V7.89587H7.7258C8.11063 7.89587 8.39925 8.1875 8.44735 8.52619L9.1208 12.1635L10.8508 7.89587H12.5336L9.93771 14.1999ZM13.4955 14.1995H11.8608L13.2069 7.89551H14.8416L13.4955 14.1995ZM16.9571 9.64178C17.0052 9.30225 17.2938 9.10812 17.6305 9.10812C18.1596 9.05937 18.736 9.15686 19.2171 9.3989L19.5057 8.04163C19.0247 7.84749 18.4955 7.75 18.0153 7.75C16.4288 7.75 15.2743 8.6232 15.2743 9.83508C15.2743 10.757 16.092 11.2411 16.6693 11.5327C17.2938 11.8235 17.5343 12.0176 17.4862 12.3084C17.4862 12.7446 17.0052 12.9387 16.525 12.9387C15.9477 12.9387 15.3705 12.7934 14.8422 12.5505L14.5536 13.9086C15.1308 14.1506 15.7553 14.2481 16.3326 14.2481C18.1115 14.296 19.2171 13.4237 19.2171 12.1143C19.2171 10.4654 16.9571 10.3687 16.9571 9.64178ZM24.9375 14.1995L23.6395 7.89551H22.2454C21.9568 7.89551 21.6681 8.08964 21.5719 8.38043L19.1685 14.1995H20.8512L21.1871 13.2784H23.2547L23.4471 14.1995H24.9375ZM22.4861 9.59326L22.9663 11.9691H21.6202L22.4861 9.59326Z" fill="#172B85"/>
<rect x="0.5" y="0.5" width="29" height="21" rx="4.5" stroke="#002B33" stroke-opacity="0.07"/>
</svg>
