<svg width="257" height="66" viewBox="0 0 257 66" fill="none" xmlns="http://www.w3.org/2000/svg">
<path d="M178.804 39.7301C178.751 39.7563 178.691 39.766 178.633 39.758C172.546 38.9314 166.437 38.2471 160.307 37.7052C160.257 37.7009 160.21 37.6815 160.17 37.6495C158.841 36.5746 157.68 35.3261 156.688 33.904C156.665 33.8716 156.647 33.8354 156.636 33.797C156.535 33.4387 156.602 33.1607 156.836 32.963C159.18 30.9871 160.389 29.9665 160.464 29.901C160.92 29.5063 161.205 29.2833 161.698 29.5543C161.779 29.5981 161.902 29.7345 162.067 29.9635C163.038 31.3038 164.213 32.4355 165.591 33.3588C167.523 34.6522 169.679 35.1841 172.06 34.9544C174.437 34.7236 177.498 33.6509 177.749 30.8165C178.03 27.6632 175.696 26.305 173.16 25.2524C172.555 25.0019 171.378 24.5685 169.63 23.9523C168.605 23.591 167.487 23.1272 166.276 22.5607C163.249 21.1457 160.271 19.0126 158.916 15.8325C157.919 13.491 157.831 10.681 158.731 8.29262C161.01 2.24463 167.65 -0.282055 173.703 0.728174C177.432 1.35037 180.814 3.29389 183.395 6.05808C183.74 6.42604 183.877 6.74272 183.621 7.16866C183.607 7.19234 183.59 7.21372 183.571 7.23222C183.088 7.70872 181.89 8.89326 179.975 10.7859C179.649 11.1092 179.305 11.1679 178.943 10.962C178.906 10.9414 178.874 10.915 178.847 10.884C176.161 7.87003 172.002 5.8819 168.021 7.60576C166.959 8.06516 165.961 8.91593 165.442 9.97077C165.014 10.842 164.92 11.7957 165.161 12.832C165.561 14.5525 167.158 15.5772 168.672 16.2986C169.569 16.7261 170.546 17.1345 171.603 17.5241C177.259 19.6081 183.936 21.8727 184.624 29.0068C184.715 29.9538 184.716 30.8429 184.627 31.674C184.243 35.2711 182.027 38.1568 178.804 39.7301Z" fill="white"/>
<path d="M99.2706 37.5535L91.8157 38.1199C91.8033 38.1209 91.7908 38.1185 91.7796 38.1131C91.7684 38.1076 91.7589 38.0991 91.752 38.0887C91.2558 37.2978 88.7649 33.3438 84.2793 26.2269C84.0971 25.9392 83.8702 25.8589 83.5182 25.8589C83.2432 25.8596 82.6121 25.8596 81.6248 25.8589C81.5944 25.8589 81.564 25.863 81.5343 25.8712C81.038 26.005 80.9229 26.3573 80.9252 26.8691C80.9296 27.5188 80.9307 31.6404 80.9285 39.2338C80.9284 39.2513 80.922 39.268 80.9105 39.2811C80.8991 39.2943 80.8832 39.3028 80.8659 39.3052L74.2147 40.2084C74.2047 40.2098 74.1946 40.2091 74.1849 40.2063C74.1752 40.2035 74.1663 40.1986 74.1587 40.1921C74.151 40.1855 74.1449 40.1774 74.1407 40.1683C74.1365 40.1592 74.1343 40.1493 74.1342 40.1393C74.1349 27.2731 74.1349 14.5847 74.1342 2.07391C74.1342 1.75129 74.2311 1.51305 74.4248 1.35917C74.5611 1.25213 74.7988 1.19823 75.1379 1.19749C81.6859 1.19377 85.8533 1.19637 87.6401 1.20529C89.0894 1.21273 90.5613 1.45655 92.056 1.93676C96.7212 3.43538 99.787 7.26221 100.247 12.1361C100.783 17.8049 98.3016 23.0111 92.7535 25.0148C92.3511 25.1598 92.1157 25.2869 92.0471 25.3962C91.8113 25.7675 91.8839 26.0395 92.141 26.4276C92.2095 26.5316 94.5924 30.2269 99.2896 37.5133C99.2919 37.5172 99.2933 37.5216 99.2935 37.5261C99.2938 37.5306 99.2929 37.5351 99.291 37.5391C99.2891 37.5431 99.2862 37.5466 99.2827 37.5491C99.2791 37.5516 99.2749 37.5531 99.2706 37.5535ZM80.9296 13.5187C80.9274 16.3591 80.9267 17.9863 80.9274 18.4004C80.9285 18.852 80.9777 19.0739 81.3253 19.3058C81.4237 19.3712 81.6777 19.4043 82.0875 19.405C84.235 19.408 85.7241 19.4054 86.5549 19.3972C90.3214 19.3582 93.3805 17.6578 93.3838 13.5265C93.3861 9.39528 90.3292 7.69039 86.5616 7.6469C85.7315 7.63724 84.2428 7.63277 82.0954 7.63352C81.6855 7.63352 81.4311 7.66622 81.332 7.73164C80.9844 7.96245 80.9352 8.18435 80.933 8.63594C80.9322 9.05074 80.9311 10.6783 80.9296 13.5187Z" fill="white"/>
<path d="M125.03 36.5345C125.011 36.5345 124.993 36.5271 124.98 36.5139C124.967 36.5007 124.959 36.4829 124.959 36.4642V2.15215C124.959 2.02666 124.977 1.9024 125.01 1.78646C125.044 1.67052 125.094 1.56518 125.156 1.47644C125.219 1.38771 125.293 1.31732 125.375 1.26929C125.456 1.22127 125.544 1.19655 125.632 1.19655H131.091C131.269 1.19655 131.44 1.29723 131.566 1.47644C131.693 1.65565 131.764 1.89871 131.764 2.15215V36.4642C131.764 36.4735 131.762 36.4826 131.758 36.4911C131.755 36.4996 131.749 36.5074 131.743 36.5139C131.736 36.5204 131.729 36.5256 131.72 36.5291C131.712 36.5327 131.702 36.5345 131.693 36.5345H125.03Z" fill="white"/>
<path d="M232.173 34.3333C232.64 34.3333 233.02 34.5764 233.039 35.0782C233.041 35.1027 233.039 36.7374 233.036 39.9821C233.036 40.3895 232.838 40.6527 232.442 40.7716C232.41 40.7812 232.377 40.7861 232.344 40.7861C220.457 40.7935 212.833 40.7924 209.472 40.7828C208.751 40.7805 208.624 40.2431 208.652 39.5941C208.655 39.5161 208.656 27.0685 208.654 2.25133C208.654 1.56334 208.834 1.19761 209.534 1.19761C215.159 1.19761 222.775 1.19761 232.383 1.19761C232.656 1.19761 232.869 1.32101 233.023 1.5678C233.101 1.69269 233.137 1.94692 233.132 2.33049C233.122 2.99431 233.121 4.44573 233.128 6.68474C233.13 7.17536 233.023 7.44073 232.608 7.61357C232.576 7.6268 232.541 7.63363 232.506 7.63364C222.075 7.63587 216.748 7.63512 216.524 7.63141C215.837 7.62137 215.458 7.8533 215.469 8.55132C215.47 8.57288 215.47 11.1992 215.469 16.4302C215.469 16.7662 215.597 17.0067 215.853 17.1516C215.991 17.2304 216.275 17.2661 216.703 17.2587C217.009 17.2535 222.093 17.252 231.955 17.2542C232.496 17.2542 232.794 17.291 232.99 17.7493C233.023 17.8259 233.039 17.9894 233.039 18.2399C233.041 21.2416 233.039 22.8027 233.035 22.9231C233.02 23.3528 232.794 23.6148 232.354 23.7092L232.352 23.7101L232.351 23.7103H216.09C216.075 23.7103 216.06 23.7126 216.046 23.717C215.659 23.8382 215.465 24.1311 215.466 24.5957C215.472 30.2653 215.473 33.1343 215.469 33.2027C215.436 33.8137 215.6 34.3333 216.262 34.3333C224.576 34.3348 229.879 34.3348 232.173 34.3333Z" fill="white"/>
<path d="M33.2746 32.1244C32.7247 31.9349 32.4986 31.5587 32.5962 30.996C32.6058 30.942 32.6235 30.8894 32.6487 30.8399C34.1471 27.8962 34.9444 26.3422 35.0405 26.1779C35.2484 25.8189 35.6329 25.7542 36.0442 25.7531C37.445 25.7501 38.5195 25.7519 39.2676 25.7586C39.687 25.7616 39.9631 25.7107 40.0957 25.6059C40.488 25.2937 40.5361 24.9792 40.4445 24.4518C40.3387 23.843 39.6565 19.7742 38.398 12.2454C38.3287 11.8314 38.2516 11.5694 38.1666 11.4593C37.8693 11.0758 37.2401 10.9743 36.8433 11.3032C36.7472 11.3828 36.6295 11.5552 36.4901 11.8206C32.287 19.8281 27.2712 29.3807 21.4429 40.4783C21.2835 40.7816 21.0145 40.934 20.636 40.9355C17.8187 40.9459 16.004 40.9466 15.1918 40.9377C14.4486 40.9299 14.0887 40.146 14.4318 39.506C26.6174 16.7628 33.3134 4.2647 34.5197 2.01157C34.7689 1.54548 35.1042 1.46408 35.6418 1.47301C35.9734 1.47895 37.9111 1.47932 41.4548 1.47412C41.814 1.47338 42.0703 1.51315 42.2238 1.59343C42.4622 1.71832 42.6094 1.9246 42.6653 2.21228C46.2381 20.6343 48.64 33.015 49.8709 39.3544C49.9745 39.8859 49.9942 40.217 49.9301 40.3479C49.6999 40.8195 49.3735 40.9444 48.8024 40.9433C47.067 40.9418 45.4289 40.9418 43.888 40.9433C43.0576 40.9444 42.8687 40.4716 42.7625 39.7011C42.7454 39.5822 42.4041 37.4454 41.7387 33.2908C41.6746 32.8923 41.5908 32.624 41.4872 32.4857C41.3188 32.2612 41.0666 32.1493 40.7306 32.1501C37.8045 32.1523 35.3524 32.1493 33.3741 32.1412C33.34 32.1412 33.3064 32.1355 33.2746 32.1244Z" fill="white"/>
<path d="M0.5 64.8254C0.50149 64.6188 0.598355 64.4735 0.790595 64.3895C5.82458 62.198 11.0169 60.1698 16.3676 58.3047C37.8894 50.8004 60.2741 45.9366 82.9863 43.2103C87.1507 42.71 91.6009 42.2852 96.3369 41.9358C110.674 40.8788 124.97 40.4959 139.225 40.7873C148.537 40.978 157.681 41.5188 166.847 42.5023C169.865 42.8256 172.863 43.1769 175.84 43.556C189.885 45.3416 203.73 47.9827 217.373 51.4795C226.04 53.7007 234.475 56.2686 242.677 59.1833C247.317 60.8321 251.796 62.5768 256.113 64.4173C256.423 64.55 256.667 64.8043 256.356 65.1332C256.337 65.1531 256.315 65.1697 256.29 65.1823C255.701 65.4759 255.166 65.5576 254.685 65.4276C231.532 59.1532 207.895 54.9094 183.969 52.3492C157.25 49.4891 130.342 48.7242 103.516 49.9742C82.733 50.9428 62.2472 53.1558 42.0583 56.6131C28.9123 58.8648 15.8136 61.7383 2.76216 65.2336C2.33447 65.348 2.02897 65.4038 1.84567 65.4008C1.37737 65.3941 0.830831 65.306 0.534648 64.9269C0.512168 64.8979 0.499979 64.8622 0.5 64.8254Z" fill="white"/>
</svg>
