<svg width="49" height="48" viewBox="0 0 49 48" fill="none" xmlns="http://www.w3.org/2000/svg">
<path d="M32.4998 7.99997H36.4998C37.5606 7.99997 38.578 8.4214 39.3282 9.17154C40.0783 9.92169 40.4998 10.9391 40.4998 12V40C40.4998 41.0608 40.0783 42.0783 39.3282 42.8284C38.578 43.5785 37.5606 44 36.4998 44H12.4998C11.4389 44 10.4215 43.5785 9.67133 42.8284C8.92118 42.0783 8.49976 41.0608 8.49976 40V12C8.49976 10.9391 8.92118 9.92169 9.67133 9.17154C10.4215 8.4214 11.4389 7.99997 12.4998 7.99997H16.4998M18.4998 3.99997H30.4998C31.6043 3.99997 32.4998 4.8954 32.4998 5.99997V9.99997C32.4998 11.1045 31.6043 12 30.4998 12H18.4998C17.3952 12 16.4998 11.1045 16.4998 9.99997V5.99997C16.4998 4.8954 17.3952 3.99997 18.4998 3.99997Z" stroke="#0369A1" stroke-width="2.25" stroke-linecap="round" stroke-linejoin="round"/>
</svg>
