<svg width="18" height="18" viewBox="0 0 18 18" fill="none" xmlns="http://www.w3.org/2000/svg">
<path d="M1.5 8.16699H4C4.44203 8.16699 4.86595 8.34259 5.17851 8.65515C5.49107 8.96771 5.66667 9.39163 5.66667 9.83366V12.3337C5.66667 12.7757 5.49107 13.1996 5.17851 13.5122C4.86595 13.8247 4.44203 14.0003 4 14.0003H3.16667C2.72464 14.0003 2.30072 13.8247 1.98816 13.5122C1.67559 13.1996 1.5 12.7757 1.5 12.3337V8.16699ZM1.5 8.16699C1.5 7.18208 1.69399 6.20681 2.0709 5.29687C2.44781 4.38692 3.00026 3.56013 3.6967 2.86369C4.39314 2.16725 5.21993 1.61481 6.12987 1.2379C7.03982 0.860985 8.01509 0.666992 9 0.666992C9.98491 0.666992 10.9602 0.860985 11.8701 1.2379C12.7801 1.61481 13.6069 2.16725 14.3033 2.86369C14.9997 3.56013 15.5522 4.38692 15.9291 5.29687C16.306 6.20681 16.5 7.18208 16.5 8.16699M16.5 8.16699V12.3337M16.5 8.16699H14C13.558 8.16699 13.134 8.34259 12.8215 8.65515C12.5089 8.96771 12.3333 9.39163 12.3333 9.83366V12.3337C12.3333 12.7757 12.5089 13.1996 12.8215 13.5122C13.134 13.8247 13.558 14.0003 14 14.0003H14.8333C15.2754 14.0003 15.6993 13.8247 16.0118 13.5122C16.3244 13.1996 16.5 12.7757 16.5 12.3337M16.5 12.3337V14.0003C16.5 14.8844 16.1488 15.7322 15.5237 16.3573C14.8986 16.9825 14.0507 17.3337 13.1667 17.3337H9" stroke="white" stroke-opacity="0.5" stroke-width="1.25" stroke-linecap="round" stroke-linejoin="round"/>
</svg>
