<svg width="97" height="96" viewBox="0 0 97 96" fill="none" xmlns="http://www.w3.org/2000/svg">
<path d="M0.5 48C0.5 21.4903 21.9903 0 48.5 0C75.0097 0 96.5 21.4903 96.5 48C96.5 74.5097 75.0097 96 48.5 96C21.9903 96 0.5 74.5097 0.5 48Z" fill="#038AB7" fill-opacity="0.05"/>
<path d="M68.5001 50V36C68.5001 34.9391 68.0787 33.9217 67.3285 33.1716C66.5784 32.4214 65.561 32 64.5001 32H32.5001C31.4393 32 30.4218 32.4214 29.6717 33.1716C28.9215 33.9217 28.5001 34.9391 28.5001 36V60C28.5001 62.2 30.3001 64 32.5001 64H48.5001M68.5001 38L50.5601 49.4C49.9427 49.7869 49.2288 49.992 48.5001 49.992C47.7715 49.992 47.0576 49.7869 46.4401 49.4L28.5001 38M56.5001 62L60.5001 66L68.5001 58" stroke="#0369A1" stroke-width="2.25" stroke-linecap="round" stroke-linejoin="round"/>
</svg>
