<svg width="24" height="24" viewBox="0 0 24 24" fill="none" xmlns="http://www.w3.org/2000/svg">
<path d="M3.8999 7.4999V5.6999C3.8999 5.22251 4.08954 4.76468 4.42711 4.42711C4.76468 4.08954 5.22251 3.8999 5.6999 3.8999H7.4999M16.4999 3.8999H18.2999C18.7773 3.8999 19.2351 4.08954 19.5727 4.42711C19.9103 4.76468 20.0999 5.22251 20.0999 5.6999V7.4999M20.0999 16.4999V18.2999C20.0999 18.7773 19.9103 19.2351 19.5727 19.5727C19.2351 19.9103 18.7773 20.0999 18.2999 20.0999H16.4999M7.4999 20.0999H5.6999C5.22251 20.0999 4.76468 19.9103 4.42711 19.5727C4.08954 19.2351 3.8999 18.7773 3.8999 18.2999V16.4999M8.3999 13.7999C8.3999 13.7999 9.7499 15.5999 11.9999 15.5999C14.2499 15.5999 15.5999 13.7999 15.5999 13.7999M9.2999 9.2999H9.3089M14.6999 9.2999H14.7089" stroke="#718184" stroke-width="1.5" stroke-linecap="round" stroke-linejoin="round"/>
</svg>