<svg width="18" height="18" viewBox="0 0 18 18" fill="none" xmlns="http://www.w3.org/2000/svg">
<path d="M6.57533 6.49996C6.77125 5.94301 7.15795 5.47338 7.66695 5.17423C8.17596 4.87509 8.77441 4.76574 9.35631 4.86555C9.93821 4.96536 10.466 5.26789 10.8462 5.71956C11.2264 6.17123 11.4345 6.74289 11.4337 7.33329C11.4337 8.99996 8.93366 9.83329 8.93366 9.83329M9.00033 13.1666H9.00866M5.58366 15.6666C7.17414 16.4825 9.00373 16.7035 10.7427 16.2898C12.4817 15.876 14.0158 14.8548 15.0685 13.4101C16.1211 11.9654 16.6232 10.1922 16.4841 8.41009C16.3451 6.62797 15.5741 4.9541 14.3102 3.69012C13.0462 2.42614 11.3723 1.65517 9.59019 1.51614C7.80807 1.37711 6.03489 1.87916 4.59018 2.93183C3.14547 3.9845 2.12424 5.51855 1.71051 7.25755C1.29679 8.99655 1.51778 10.8261 2.33366 12.4166L0.666992 17.3333L5.58366 15.6666Z" stroke="white" stroke-opacity="0.5" stroke-width="1.25" stroke-linecap="round" stroke-linejoin="round"/>
</svg>
