<svg width="21" height="20" viewBox="0 0 21 20" fill="none" xmlns="http://www.w3.org/2000/svg">
<path d="M17.1667 5.83329H14.6667C14.2246 5.83329 13.8007 5.6577 13.4882 5.34514C13.1756 5.03258 13 4.60865 13 4.16663V1.66663M3 6.33329V17C3 17.3536 3.14048 17.6927 3.39052 17.9428C3.64057 18.1928 3.97971 18.3333 4.33333 18.3333H12.5M8 15C7.55797 15 7.13405 14.8244 6.82149 14.5118C6.50893 14.1992 6.33333 13.7753 6.33333 13.3333V3.33329C6.33333 2.89127 6.50893 2.46734 6.82149 2.15478C7.13405 1.84222 7.55797 1.66663 8 1.66663H13.8333L17.1667 4.99996V13.3333C17.1667 13.7753 16.9911 14.1992 16.6785 14.5118C16.366 14.8244 15.942 15 15.5 15H8Z" stroke="white" stroke-width="1.2" stroke-linecap="round" stroke-linejoin="round"/>
</svg>