<svg width="43" height="44" viewBox="0 0 43 44" fill="none" xmlns="http://www.w3.org/2000/svg">
<path d="M30.4999 13.9998C31.0522 13.9998 31.4999 13.5521 31.4999 12.9998C31.4999 12.4475 31.0522 11.9998 30.4999 11.9998C29.9476 11.9998 29.4999 12.4475 29.4999 12.9998C29.4999 13.5521 29.9476 13.9998 30.4999 13.9998Z" fill="#8FA0A3"/>
<path d="M1.49988 33.9998V39.9998C1.49988 41.1998 2.29988 41.9998 3.49988 41.9998H11.4999V35.9998H17.4999V29.9998H21.4999L24.2999 27.1998C27.0795 28.1681 30.1055 28.1644 32.8828 27.1893C35.6601 26.2142 38.0243 24.3255 39.5886 21.8321C41.1529 19.3387 41.8247 16.3882 41.4941 13.4633C41.1635 10.5384 39.8501 7.81234 37.7687 5.73097C35.6874 3.64961 32.9613 2.3362 30.0364 2.00561C27.1115 1.67502 24.161 2.34682 21.6676 3.91111C19.1742 5.47541 17.2855 7.83958 16.3104 10.6169C15.3353 13.3942 15.3316 16.4202 16.2999 19.1998L1.49988 33.9998Z" stroke="#0369A1" stroke-width="2.25" stroke-linecap="round" stroke-linejoin="round"/>
<path d="M30.4999 13.9998C31.0522 13.9998 31.4999 13.5521 31.4999 12.9998C31.4999 12.4475 31.0522 11.9998 30.4999 11.9998C29.9476 11.9998 29.4999 12.4475 29.4999 12.9998C29.4999 13.5521 29.9476 13.9998 30.4999 13.9998Z" stroke="#0369A1" stroke-width="2.25" stroke-linecap="round" stroke-linejoin="round"/>
</svg>
