<svg width="36" height="30" viewBox="0 0 36 30" fill="none" xmlns="http://www.w3.org/2000/svg">
<path d="M13.6247 27.9514H12.9153C12.8464 27.9514 12.7821 27.9181 12.7419 27.863L11.4735 26.0928C11.4574 26.071 11.4333 26.0584 11.4069 26.0584H10.8743C10.8283 26.0584 10.7916 26.0951 10.7916 26.1411V27.7378C10.7916 27.8549 10.6963 27.9502 10.5792 27.9502H9.95707C9.83998 27.9502 9.7447 27.8549 9.7447 27.7378V25.2342C9.7447 25.1171 9.83998 25.0218 9.95707 25.0218H11.8236C12.098 25.0218 12.3161 24.9495 12.4917 24.8014C12.6604 24.6591 12.7419 24.4456 12.7419 24.1494C12.7419 23.8441 12.6616 23.6271 12.4963 23.4848C12.3252 23.3378 12.1094 23.2655 11.8351 23.2655H9.95592C9.83883 23.2655 9.74355 23.1702 9.74355 23.0531V22.431C9.74355 22.3139 9.83883 22.2186 9.95592 22.2186H11.5722C12.2862 22.2186 12.8372 22.3896 13.2103 22.726C13.5868 23.0658 13.7774 23.5307 13.7774 24.1058C13.7774 24.5569 13.6557 24.9575 13.4169 25.2985C13.2126 25.5901 12.9348 25.8013 12.5927 25.9287L12.587 25.9402L13.7957 27.6162C13.8428 27.6816 13.8486 27.7665 13.813 27.8377C13.7774 27.9066 13.7039 27.9514 13.6247 27.9514Z" fill="white"/>
<path d="M18.2612 27.9514H17.639C17.5219 27.9514 17.4267 27.8561 17.4267 27.739V22.431C17.4267 22.3139 17.5219 22.2186 17.639 22.2186H18.2612C18.3783 22.2186 18.4736 22.3139 18.4736 22.431V27.739C18.4736 27.8561 18.3783 27.9514 18.2612 27.9514Z" fill="white"/>
<path d="M24.5794 28.0191C24.2649 28.0191 23.963 27.9766 23.6817 27.894C23.4005 27.8102 23.164 27.7057 22.9792 27.5806C22.7978 27.4577 22.6681 27.3613 22.5832 27.2844C22.5223 27.2293 22.4695 27.1788 22.427 27.1329C22.3639 27.0663 22.3513 26.9664 22.396 26.8849L22.7014 26.3282C22.7335 26.2685 22.7909 26.2295 22.8587 26.2203C22.9252 26.2111 22.9941 26.2352 23.0412 26.2846C23.4889 26.7472 23.9997 26.971 24.6024 26.971C24.9766 26.971 25.2659 26.9021 25.4633 26.7655C25.6481 26.6381 25.7377 26.4682 25.7377 26.2467C25.7377 25.9115 25.3566 25.675 24.6035 25.543C23.8505 25.4087 23.3316 25.2101 23.0182 24.9369C22.6968 24.6579 22.5349 24.3009 22.5349 23.875C22.5349 23.3734 22.7266 22.9556 23.1055 22.6307C23.4774 22.3104 23.994 22.1486 24.638 22.1486C25.3577 22.1486 25.965 22.3632 26.4436 22.788C26.5171 22.8522 26.5366 22.959 26.4907 23.0462L26.1945 23.6122C26.1636 23.6707 26.1085 23.712 26.043 23.7235C25.9787 23.735 25.9133 23.7166 25.8651 23.673C25.5081 23.3527 25.1029 23.1966 24.6265 23.1966C24.3911 23.1966 24.1914 23.2253 24.0307 23.2804C23.8803 23.3332 23.7655 23.4067 23.6909 23.5008C23.6186 23.5915 23.583 23.7029 23.583 23.8406C23.583 24.0002 23.653 24.1161 23.8046 24.2068C23.9802 24.3124 24.289 24.4111 24.7206 24.4984C25.414 24.6315 25.9328 24.8267 26.2623 25.0815C26.6101 25.3501 26.7869 25.7301 26.7869 26.2111C26.7869 26.7357 26.5814 27.1742 26.1762 27.514C25.7756 27.8503 25.2383 28.0191 24.5794 28.0191Z" fill="white"/>
<path d="M34.2484 27.9514H30.66C30.5429 27.9514 30.4476 27.8561 30.4476 27.739V27.1168C30.4476 26.9997 30.5429 26.9044 30.66 26.9044H34.2484C34.3655 26.9044 34.4608 26.9997 34.4608 27.1168V27.739C34.4608 27.8561 34.3655 27.9514 34.2484 27.9514ZM33.8604 25.6027H30.66C30.5429 25.6027 30.4476 25.5074 30.4476 25.3903V24.7911C30.4476 24.674 30.5429 24.5787 30.66 24.5787H33.8604C33.9775 24.5787 34.0728 24.674 34.0728 24.7911V25.3903C34.0728 25.5074 33.9775 25.6027 33.8604 25.6027ZM34.2484 23.2655H30.66C30.5429 23.2655 30.4476 23.1702 30.4476 23.0531V22.431C30.4476 22.3139 30.5429 22.2186 30.66 22.2186H34.2484C34.3655 22.2186 34.4608 22.3139 34.4608 22.431V23.0531C34.4608 23.1702 34.3655 23.2655 34.2484 23.2655Z" fill="white"/>
<path d="M5.9439 28.0891H5.09443C5.02441 28.0891 4.89814 28.0616 4.84189 27.879L4.46881 26.8011C4.45044 26.7483 4.40108 26.7139 4.34598 26.7139H2.43123C2.40598 26.7139 2.38302 26.73 2.37384 26.7552L1.99158 27.8825C1.92615 28.0547 1.81939 28.0891 1.74018 28.0891H0.940072C0.821836 28.0891 0.763291 28.0306 0.734593 27.9812C0.695563 27.9146 0.693267 27.8297 0.727705 27.7309L2.60228 22.4929C2.65279 22.3483 2.7561 22.2725 2.90303 22.2725H3.88107L2.77102 25.5625C2.76528 25.5809 2.76758 25.6004 2.77906 25.6165C2.79054 25.6325 2.8089 25.6417 2.82842 25.6417H5.07951C5.28499 25.6417 5.46866 25.7714 5.53753 25.9631L6.17119 27.7218C6.20448 27.817 6.20104 27.902 6.16201 27.9743C6.11265 28.0512 6.03574 28.0891 5.9439 28.0891Z" fill="white"/>
<path d="M31.9217 17.822C30.3628 16.3722 27.0521 13.7641 22.3732 12.6667L21.7499 11.1468L18.5184 3.26511C18.3072 2.74854 17.576 2.74854 17.3636 3.26511L14.1322 11.1468L13.5043 12.677C8.85974 13.7721 5.64209 16.34 4.09239 17.806C3.96726 17.9253 4.11764 18.1239 4.26572 18.0367C6.02206 16.9955 8.89188 15.5709 12.6318 14.8018C13.4779 14.6285 14.3698 14.4873 15.3031 14.3932C16.0665 14.3151 16.8585 14.268 17.677 14.2588C18.6803 14.2474 19.6457 14.2921 20.5709 14.3828C21.5008 14.4735 22.3893 14.609 23.2341 14.78C27.0556 15.548 29.9817 17.0058 31.746 18.0528C31.8987 18.1411 32.0491 17.9403 31.9217 17.822ZM17.0204 12.1811C16.7391 12.1949 16.4613 12.2144 16.1881 12.2396L17.3797 9.33307C17.5852 8.83028 18.298 8.83028 18.5047 9.33307L19.6939 12.2327C18.8376 12.1581 17.9456 12.1363 17.0204 12.1811ZM24.5508 17.9781C24.7218 18.3937 24.4153 18.8494 23.9665 18.8494H22.6625C22.5075 18.8494 22.3663 18.7553 22.3078 18.6118L21.7499 17.2515L21.1024 15.6731C22.046 15.7867 22.9449 15.9463 23.7966 16.1392L24.5508 17.9781ZM12.0912 16.1311C12.9418 15.9394 13.8406 15.7822 14.7831 15.6697L14.1345 17.2526L13.5766 18.6129C13.518 18.7564 13.378 18.8506 13.2219 18.8506H11.9178C11.4678 18.8506 11.1625 18.3948 11.3335 17.9793L12.0912 16.1311Z" fill="white"/>
</svg>