<svg width="33" height="32" viewBox="0 0 33 32" fill="none" xmlns="http://www.w3.org/2000/svg">
<path d="M17.8793 8.5C20.211 10.5626 21.5 13.2328 21.5 16C21.5 18.7672 20.211 21.4374 17.8793 23.5M14.0507 10.75C15.7875 12.152 16.7604 14.0369 16.7604 16C16.7604 17.9631 15.7875 19.848 14.0507 21.25M10.6667 13.375C11.5351 14.076 12.0215 15.0184 12.0215 16C12.0215 16.9816 11.5351 17.924 10.6667 18.625M31.5 16C31.5 24.2843 24.7843 31 16.5 31C8.21573 31 1.5 24.2843 1.5 16C1.5 7.71573 8.21573 1 16.5 1C24.7843 1 31.5 7.71573 31.5 16Z" stroke="#0369A1" stroke-width="1.66667" stroke-linecap="round" stroke-linejoin="round"/>
</svg>
