<svg width="27" height="28" viewBox="0 0 27 28" fill="none" xmlns="http://www.w3.org/2000/svg">
<path d="M23.4165 18.4444H20.0832C19.4938 18.4444 18.9286 18.6786 18.5118 19.0953C18.0951 19.5121 17.8609 20.0773 17.8609 20.6667V24M23.4165 24V24.0111M13.4165 8.44444L13.4165 11.7778C13.4165 12.3671 13.1824 12.9324 12.7656 13.3491C12.3489 13.7659 11.7837 14 11.1943 14L7.86095 14M3.4165 14H3.42762M13.4165 4H13.4276M13.4165 18.4444V18.4556M17.8609 14H18.9721M23.4165 14V14.0111M13.4165 24V22.8889M4.52762 4L7.86095 4C8.4746 4 8.97206 4.49746 8.97206 5.11111V8.44444C8.97206 9.05809 8.4746 9.55556 7.86095 9.55556H4.52762C3.91397 9.55556 3.4165 9.05809 3.4165 8.44444L3.4165 5.11111C3.4165 4.49746 3.91397 4 4.52762 4ZM18.9721 4L22.3054 4C22.919 4 23.4165 4.49746 23.4165 5.11111V8.44444C23.4165 9.05809 22.919 9.55556 22.3054 9.55556H18.9721C18.3584 9.55556 17.8609 9.05809 17.8609 8.44444V5.11111C17.8609 4.49746 18.3584 4 18.9721 4ZM4.52762 18.4444H7.86095C8.4746 18.4444 8.97206 18.9419 8.97206 19.5556V22.8889C8.97206 23.5025 8.4746 24 7.86095 24H4.52762C3.91397 24 3.4165 23.5025 3.4165 22.8889L3.4165 19.5556C3.4165 18.9419 3.91397 18.4444 4.52762 18.4444Z" stroke="#0369A1" stroke-width="1.66667" stroke-linecap="round" stroke-linejoin="round"/>
</svg>
