<svg width="25" height="25" viewBox="0 0 25 25" fill="none" xmlns="http://www.w3.org/2000/svg">
<path d="M6.72168 24.3374C5.65365 24.3374 4.84847 24.069 4.30615 23.5322C3.76383 23.001 3.49268 22.2041 3.49268 21.1416V10.4917C3.49268 9.4292 3.76383 8.62956 4.30615 8.09277C4.84847 7.55599 5.65365 7.2876 6.72168 7.2876H10.2827V8.76514H6.75488C6.17383 8.76514 5.72835 8.91732 5.41846 9.22168C5.1141 9.52604 4.96191 9.97428 4.96191 10.5664V21.0586C4.96191 21.6562 5.1141 22.1073 5.41846 22.4116C5.72835 22.716 6.17383 22.8682 6.75488 22.8682H19.0068C19.5768 22.8682 20.0168 22.716 20.3267 22.4116C20.6421 22.1073 20.7998 21.6562 20.7998 21.0586V10.5664C20.7998 9.97428 20.6421 9.52604 20.3267 9.22168C20.0168 8.91732 19.5768 8.76514 19.0068 8.76514H15.479V7.2876H19.04C20.1136 7.2876 20.9188 7.55876 21.4556 8.10107C21.9979 8.63786 22.269 9.43473 22.269 10.4917V21.1416C22.269 22.1986 21.9979 22.9954 21.4556 23.5322C20.9188 24.069 20.1136 24.3374 19.04 24.3374H6.72168ZM12.8809 16.0366C12.6816 16.0366 12.5101 15.9674 12.3662 15.8291C12.2223 15.6852 12.1504 15.5164 12.1504 15.3228V4.18311L12.2085 2.60596L11.5527 3.29492L9.74316 5.1875C9.61035 5.33691 9.44157 5.41162 9.23682 5.41162C9.04867 5.41162 8.89095 5.35075 8.76367 5.229C8.64193 5.10726 8.58105 4.95231 8.58105 4.76416C8.58105 4.66455 8.59766 4.57878 8.63086 4.50684C8.6696 4.42936 8.72493 4.35465 8.79688 4.28271L12.3496 0.82959C12.4437 0.735514 12.5322 0.671875 12.6152 0.638672C12.6982 0.605469 12.7868 0.588867 12.8809 0.588867C12.9749 0.588867 13.0635 0.605469 13.1465 0.638672C13.2295 0.671875 13.318 0.735514 13.4121 0.82959L16.9648 4.28271C17.0312 4.35465 17.0838 4.42936 17.1226 4.50684C17.1613 4.57878 17.1807 4.66455 17.1807 4.76416C17.1807 4.95231 17.1143 5.10726 16.9814 5.229C16.8542 5.35075 16.6965 5.41162 16.5083 5.41162C16.3091 5.41162 16.1431 5.33691 16.0103 5.1875L14.209 3.29492L13.5532 2.61426L13.6113 4.18311V15.3228C13.6113 15.5164 13.5394 15.6852 13.3955 15.8291C13.2516 15.9674 13.0801 16.0366 12.8809 16.0366Z" fill="#007AFF"/>
</svg>
