<svg width="21" height="20" viewBox="0 0 21 20" fill="none" xmlns="http://www.w3.org/2000/svg">
<path d="M14.1667 17.5V15.8333C14.1667 14.9493 13.8155 14.1014 13.1904 13.4763C12.5652 12.8512 11.7174 12.5 10.8333 12.5H5.83333C4.94928 12.5 4.10143 12.8512 3.47631 13.4763C2.85119 14.1014 2.5 14.9493 2.5 15.8333V17.5M19.1667 17.5V15.8333C19.1661 15.0948 18.9203 14.3773 18.4678 13.7936C18.0153 13.2099 17.3818 12.793 16.6667 12.6083M14.1667 2.60833C14.8837 2.79192 15.5192 3.20892 15.973 3.79359C16.4269 4.37827 16.6732 5.09736 16.6732 5.8375C16.6732 6.57764 16.4269 7.29673 15.973 7.88141C15.5192 8.46608 14.8837 8.88308 14.1667 9.06667M11.6667 5.83333C11.6667 7.67428 10.1743 9.16667 8.33333 9.16667C6.49238 9.16667 5 7.67428 5 5.83333C5 3.99238 6.49238 2.5 8.33333 2.5C10.1743 2.5 11.6667 3.99238 11.6667 5.83333Z" stroke="white" stroke-width="1.2" stroke-linecap="round" stroke-linejoin="round"/>
</svg>